{"title":"Capone.1975.DvDRiP.XViD.Optional. Multi_Sub.Zen_Bud","uid":5785053,"size":979104717,"categoryP":"video","categoryS":"movies","magnet":"?xt=urn:btih:7465baee4d8e179c04b065f09ec8e7c96462791d&amp;dn=Capone.1975.DvDRiP.XViD.Optional.+Multi_Sub.Zen_Bud&amp;tr=udp%3A%2F%2Ftracker.openbittorrent.com%3A80&amp;tr=udp%3A%2F%2Fopen.demonii.com%3A1337&amp;tr=udp%3A%2F%2Ftracker.coppersurfer.tk%3A6969&amp;tr=udp%3A%2F%2Fexodus.desync.com%3A6969","seeders":0,"leechers":0,"uploader":"Zen_Bud","files":-1,"time":1282578243,"description":"General\nComplete name                    : Capone.1975.avi\nFormat                           : AVI\nFile size                        : 907 MiB\nDuration                         : 1h 37mn\nOverall bit rate                 : 1 305 Kbps\n\nVideo\nCodec ID/Hint                    : XviD\nDuration                         : 1h 37mn\nBit rate                         : 1 180 Kbps\nWidth                            : 720 pixels\nHeight                           : 556 pixels\nDisplay aspect ratio             : 16:9\nStream size                      : 820 MiB (90%)\nWriting library                  : XviD 1.1.2 (UTC 2006-11-01)\n\nAudio\n\nCodec ID/Hint                    : MP3\nDuration                         : 1h 37mn\nBit rate                         : 112 Kbps\nChannel(s)                       : 2 channels\nSampling rate                    : 48.0 KHz\nStream size                      : 77.8 MiB (9%)\nAlignment                        : Split accross interleaves\nInterleave, duration             : 24 ms (0.60 video frame)\nWriting library                  : LAME3.98\n\n\nText:**********English ,German ,Spanish ,Swedish ,Danish ,Finnish ,Norwegian\n\n","torrent":{"xt":"urn:btih:7465baee4d8e179c04b065f09ec8e7c96462791d","amp;dn":"Capone.1975.DvDRiP.XViD.Optional.+Multi_Sub.Zen_Bud","amp;tr":["udp%3A%2F%2Ftracker.openbittorrent.com%3A80","udp%3A%2F%2Fopen.demonii.com%3A1337","udp%3A%2F%2Ftracker.coppersurfer.tk%3A6969","udp%3A%2F%2Fexodus.desync.com%3A6969"],"infoHash":"7465baee4d8e179c04b065f09ec8e7c96462791d","infoHashBuffer":{"type":"Buffer","data":[116,101,186,238,77,142,23,156,4,176,101,240,158,200,231,201,100,98,121,29]},"announce":[],"urlList":[]}}